<?xml version="1.0" encoding="utf-8"?>
<!-- Generator: Adobe Illustrator 27.3.1, SVG Export Plug-In . SVG Version: 6.00 Build 0)  -->
<svg width="32" height="32" version="1.1" id="Layer_1" xmlns="http://www.w3.org/2000/svg" xmlns:xlink="http://www.w3.org/1999/xlink" x="0px" y="0px"
	 viewBox="0 0 41 41" style="enable-background:new 0 0 41 41;" xml:space="preserve">
<style type="text/css">
	.st0{display:none;fill:none;stroke:#000000;stroke-linecap:round;stroke-linejoin:round;stroke-miterlimit:10;}
	.st1{fill:none;stroke:#000000;stroke-linecap:round;stroke-linejoin:round;}
</style>
<path class="st0" d="M19.1,12.4H9.6c-0.3,0-0.5-0.2-0.5-0.5V8.1c0-0.3,0.2-0.5,0.5-0.5h9.6c0.3,0,0.5,0.2,0.5,0.5v3.8
	C19.6,12.2,19.4,12.4,19.1,12.4z"/>
<path class="st0" d="M20,12.6H8.9v0.7h0.4V32c0,1.1,0.9,1.9,1.9,1.9h6.6c1.1,0,1.9-0.9,1.9-1.9V13.3H20V12.6z"/>
<line class="st0" x1="9.5" y1="14.1" x2="19.3" y2="14.1"/>
<path class="st0" d="M9.4,29.8l2.1,0.5c2,0.4,4,0.4,6,0l2-0.5"/>
<g>
	<rect x="15.8" y="6.6" transform="matrix(0.6708 0.7416 -0.7416 0.6708 21.9504 -8.4551)" class="st1" width="9.4" height="27.8"/>
	<polyline class="st1" points="12.3,34.2 13.3,33.3 7,26.4 6,27.3 	"/>
	<g>
		<polyline class="st1" points="6,27.3 5.8,28.7 7.3,28.6 7.1,30.1 8.6,30 8.3,31.5 9.8,31.4 9.6,32.9 11.1,32.8 10.9,34.3 
			12.3,34.2 		"/>
	</g>
	<polyline class="st1" points="28.7,6.8 27.7,7.7 34,14.6 35,13.7 	"/>
	<g>
		<polyline class="st1" points="35,13.7 35.2,12.3 33.7,12.4 33.9,10.9 32.4,11 32.7,9.5 31.2,9.6 31.4,8.1 29.9,8.2 30.1,6.7 
			28.7,6.8 		"/>
	</g>
</g>
</svg>
