<svg width="32" height="33" viewBox="0 0 32 33" fill="none" xmlns="http://www.w3.org/2000/svg">
<path d="M10.0732 10.8955C13.0732 7.13555 6.99325 7.24754 10.6972 3.38354" stroke="black" stroke-linecap="round" stroke-linejoin="round"/>
<path d="M14.1455 10.8955C17.1455 7.13555 11.0655 7.24754 14.7695 3.38354" stroke="#222222" stroke-linecap="round" stroke-linejoin="round"/>
<path d="M18.2158 10.8955C21.2158 7.13555 15.1358 7.24754 18.8398 3.38354" stroke="#222222" stroke-linecap="round" stroke-linejoin="round"/>
<path d="M6.96094 13.3997H21.9849V24.1837C21.9849 26.8317 19.8329 28.9837 17.1849 28.9837H11.7609C9.11294 28.9837 6.96094 26.8317 6.96094 24.1837V13.3997Z" stroke="#222222" stroke-linecap="round" stroke-linejoin="round"/>
<path d="M21.9846 17.4395C21.9846 16.4715 23.0406 14.9355 25.1126 14.9355C27.1846 14.9355 28.2406 16.1595 28.2406 18.0635C28.2406 21.5355 21.9766 23.1515 21.9766 24.9515" stroke="#222222" stroke-linecap="round" stroke-linejoin="round"/>
<path d="M6.96094 24.1516H21.9849" stroke="#222222" stroke-linecap="round" stroke-linejoin="round"/>
</svg>
