<?xml version="1.0" encoding="utf-8"?>
<!-- Generator: Adobe Illustrator 27.3.1, SVG Export Plug-In . SVG Version: 6.00 Build 0)  -->
<svg width="32" height="32" version="1.1" id="Layer_1" xmlns="http://www.w3.org/2000/svg" xmlns:xlink="http://www.w3.org/1999/xlink" x="0px" y="0px"
	 viewBox="0 0 26 26" style="enable-background:new 0 0 26 26;" xml:space="preserve">
<g>
	<g>
		<path d="M23.4,13.8H20c-0.3,0-0.5-0.2-0.5-0.5s0.2-0.5,0.5-0.5h3.4c0.3,0,0.5,0.2,0.5,0.5S23.6,13.8,23.4,13.8z"/>
	</g>
	<g>
		<path d="M6.2,13.8H2.9c-0.3,0-0.5-0.2-0.5-0.5s0.2-0.5,0.5-0.5h3.3c0.3,0,0.5,0.2,0.5,0.5S6.5,13.8,6.2,13.8z"/>
	</g>
	<g>
		<path d="M8.9,9.5c-0.1,0-0.3,0-0.4-0.1L6.1,7c-0.2-0.2-0.2-0.5,0-0.7s0.5-0.2,0.7,0l2.4,2.4c0.2,0.2,0.2,0.5,0,0.7
			C9.1,9.5,9,9.5,8.9,9.5z"/>
	</g>
	<g>
		<path d="M13.2,8.1c-0.3,0-0.5-0.2-0.5-0.5V4.2c0-0.3,0.2-0.5,0.5-0.5s0.5,0.2,0.5,0.5v3.4C13.7,7.9,13.4,8.1,13.2,8.1z"/>
	</g>
	<g>
		<path d="M17.4,9.6c-0.1,0-0.3,0-0.4-0.1c-0.2-0.2-0.2-0.5,0-0.7l2.5-2.5c0.2-0.2,0.5-0.2,0.7,0s0.2,0.5,0,0.7l-2.5,2.5
			C17.7,9.5,17.5,9.6,17.4,9.6z"/>
	</g>
	<g>
		<path d="M18.2,14.9c-0.3,0-0.5-0.2-0.5-0.5c0-2.5-2-4.5-4.5-4.5s-4.5,2-4.5,4.5c0,0.3-0.2,0.5-0.5,0.5s-0.5-0.2-0.5-0.5
			c0-3,2.5-5.5,5.5-5.5c3,0,5.5,2.5,5.5,5.5C18.7,14.7,18.4,14.9,18.2,14.9z"/>
	</g>
</g>
<g>
	<path d="M22.2,17.2H4c-0.3,0-0.5-0.2-0.5-0.5s0.2-0.5,0.5-0.5h18.2c0.3,0,0.5,0.2,0.5,0.5S22.5,17.2,22.2,17.2z"/>
</g>
<g>
	<path d="M20.7,19.1H5.5c-0.3,0-0.5-0.2-0.5-0.5s0.2-0.5,0.5-0.5h15.2c0.3,0,0.5,0.2,0.5,0.5S21,19.1,20.7,19.1z"/>
</g>
<g>
	<path d="M18.4,21H7.8c-0.3,0-0.5-0.2-0.5-0.5S7.6,20,7.8,20h10.6c0.3,0,0.5,0.2,0.5,0.5S18.7,21,18.4,21z"/>
</g>
</svg>
