<svg width="32" height="33" viewBox="0 0 32 33" fill="none" xmlns="http://www.w3.org/2000/svg">
<path d="M24.6877 10.3115C24.6877 11.5915 20.5277 13.9835 15.3917 13.9835C10.2557 13.9835 6.0957 11.5995 6.0957 10.3115C6.0957 9.02352 10.2557 7.31152 15.3917 7.31152C20.5277 7.31152 24.6877 9.02352 24.6877 10.3115Z" stroke="#222222" stroke-linecap="round" stroke-linejoin="round"/>
<path d="M24.6877 10.3115C24.6877 15.0635 23.1597 20.7675 15.3917 20.7675C7.6237 20.7675 6.0957 15.0635 6.0957 10.3115" stroke="#222222" stroke-linecap="round" stroke-linejoin="round"/>
<path d="M24.6792 18.4717C26.4872 19.0957 27.5832 19.8957 27.5832 20.7677C27.5832 22.7117 22.1192 24.2557 15.3912 24.2557C8.66322 24.2557 3.19922 22.7197 3.19922 20.7677C3.19922 19.8957 4.29522 19.0877 6.10322 18.4717" stroke="#222222" stroke-linecap="round" stroke-linejoin="round"/>
<path d="M24.5687 12.6477C24.7847 11.9197 26.0407 11.0557 27.3847 11.4157C28.5047 11.7197 29.0887 12.8157 28.6487 14.2477C27.9847 16.4157 24.4727 15.5437 22.7207 17.6397" stroke="#222222" stroke-linecap="round" stroke-linejoin="round"/>
<path d="M15.432 12.2376C15.4211 12.2348 15.4094 12.2319 15.3971 12.2287C15.3018 12.2043 15.164 12.1671 14.9972 12.1167C14.6622 12.0155 14.2172 11.8632 13.7685 11.658C13.3162 11.4511 12.8819 11.2001 12.5533 10.9092C12.224 10.6176 12.0396 10.3211 11.9992 10.0222C11.9814 9.88304 12.0428 9.68253 12.3065 9.47731C12.5685 9.27349 12.9901 9.10615 13.5323 9.07487L13.5323 9.07487L13.5347 9.07472C14.2181 9.03201 14.7988 9.19278 15.1525 9.43062C15.3194 9.54284 15.5373 9.54415 15.7055 9.43393C16.0649 9.19849 16.6497 9.03231 17.3283 9.07473L17.3307 9.07487C17.8728 9.10615 18.2945 9.27349 18.5564 9.47731C18.8202 9.68257 18.8816 9.8831 18.8638 10.0223C18.8233 10.3236 18.6385 10.6211 18.3094 10.9128C17.9811 11.2038 17.547 11.4545 17.0949 11.6608C16.6464 11.8655 16.2015 12.017 15.8666 12.1176C15.6998 12.1676 15.562 12.2046 15.4668 12.2288C15.4545 12.2319 15.4429 12.2349 15.432 12.2376Z" stroke="#222222" stroke-linecap="round" stroke-linejoin="round"/>
</svg>
