<svg width="32" height="33" viewBox="0 0 32 33" fill="none" xmlns="http://www.w3.org/2000/svg">
<path d="M15.6321 11.0315H23.0001C23.4401 11.0315 23.7841 11.4075 23.7361 11.8475L21.6561 25.9435C21.6161 26.3275 21.2961 26.6155 20.9201 26.6155H11.1121C10.7281 26.6155 10.4081 26.3275 10.3761 25.9435L8.29614 11.8475C8.25614 11.4075 8.60014 11.0315 9.03214 11.0315H15.6321V11.0315Z" stroke="black" stroke-linecap="round" stroke-linejoin="round"/>
<path d="M6.72852 29.5835H25.2725" stroke="black" stroke-linecap="round" stroke-linejoin="round"/>
<path d="M9.02369 11.0316C8.88769 10.8556 6.71969 5.46364 15.6237 7.69564C21.0957 9.06364 23.0477 3.98364 23.0477 3.98364C23.0477 3.98364 25.9037 8.43964 22.9917 11.0316H9.02369V11.0316Z" stroke="#222222" stroke-linecap="round" stroke-linejoin="round"/>
<path d="M9.24805 7.9997C9.24805 7.9997 9.68805 3.0477 16 4.2637C22.312 5.4797 23.048 3.9917 23.048 3.9917" stroke="#222222" stroke-linecap="round" stroke-linejoin="round"/>
</svg>
