<svg width="32" height="33" viewBox="0 0 32 33" fill="none" xmlns="http://www.w3.org/2000/svg">
<path d="M6.625 12.0396H20.985V27.5836C20.985 28.9116 19.913 29.9836 18.585 29.9836H9.025C7.697 29.9836 6.625 28.9116 6.625 27.5836V12.0396Z" stroke="black" stroke-linecap="round" stroke-linejoin="round"/>
<path d="M20.9844 17.4235C20.9844 16.5035 21.9924 15.0315 23.9764 15.0315C25.9604 15.0315 26.9684 16.1995 26.9684 18.0235C26.9684 21.3355 20.9844 22.8795 20.9844 24.5995" stroke="#222222" stroke-linecap="round" stroke-linejoin="round"/>
<path d="M6.62431 12.0395C6.62431 12.0395 4.96831 6.74349 10.1923 6.67149C10.2483 6.67149 10.3043 6.63949 10.3283 6.58349C10.5043 6.16749 11.3763 4.37549 13.7363 4.37549C16.0963 4.37549 16.7843 6.09549 16.9443 6.55949C16.9683 6.62349 17.0243 6.66349 17.0963 6.65549C17.8963 6.58349 22.3923 6.43949 20.9843 12.0315H6.62431V12.0395Z" stroke="#222222" stroke-linecap="round" stroke-linejoin="round"/>
</svg>
