<svg width="32" height="33" viewBox="0 0 32 33" fill="none" xmlns="http://www.w3.org/2000/svg">
<path d="M15.3917 12.6957C20.5257 12.6957 24.6877 11.657 24.6877 10.3757C24.6877 9.09436 20.5257 8.05566 15.3917 8.05566C10.2577 8.05566 6.0957 9.09436 6.0957 10.3757C6.0957 11.657 10.2577 12.6957 15.3917 12.6957Z" stroke="#222222" stroke-linecap="round" stroke-linejoin="round"/>
<path d="M11.8553 9.11157C11.8553 9.11157 11.1833 9.62357 11.8553 10.3756C12.5273 11.1276 11.8553 11.6236 11.8553 11.6236" stroke="black" stroke-linecap="round" stroke-linejoin="round"/>
<path d="M15.3905 9.11157C15.3905 9.11157 14.7185 9.62357 15.3905 10.3756C16.0625 11.1276 15.3905 11.6236 15.3905 11.6236" stroke="black" stroke-linecap="round" stroke-linejoin="round"/>
<path d="M18.9276 9.11157C18.9276 9.11157 18.2556 9.62357 18.9276 10.3756C19.5996 11.1276 18.9276 11.6236 18.9276 11.6236" stroke="black" stroke-linecap="round" stroke-linejoin="round"/>
<path d="M24.6877 10.3755C24.6877 15.1275 23.1597 20.8315 15.3917 20.8315C7.6237 20.8315 6.0957 15.1275 6.0957 10.3755" stroke="#222222" stroke-linecap="round" stroke-linejoin="round"/>
<path d="M24.6792 18.5356C26.4872 19.1596 27.5832 19.9596 27.5832 20.8316C27.5832 22.7756 22.1192 24.3196 15.3912 24.3196C8.66322 24.3196 3.19922 22.7836 3.19922 20.8316C3.19922 19.9596 4.29522 19.1516 6.10322 18.5356" stroke="#222222" stroke-linecap="round" stroke-linejoin="round"/>
<path d="M24.5687 12.7036C24.7847 11.9756 26.0407 11.1116 27.3847 11.4716C28.5047 11.7756 29.0887 12.8716 28.6487 14.3036C27.9847 16.4716 24.4727 15.5996 22.7207 17.6956" stroke="#222222" stroke-linecap="round" stroke-linejoin="round"/>
</svg>
