<?xml version="1.0" encoding="utf-8"?>
<!-- Generator: Adobe Illustrator 27.3.1, SVG Export Plug-In . SVG Version: 6.00 Build 0)  -->
<svg width="32" height="32" version="1.1" id="Layer_1" xmlns="http://www.w3.org/2000/svg" xmlns:xlink="http://www.w3.org/1999/xlink" x="0px" y="0px"
	 viewBox="0 0 41 41" style="enable-background:new 0 0 41 41;" xml:space="preserve">
<style type="text/css">
	.st0{fill:none;stroke:#000000;stroke-linecap:round;stroke-linejoin:round;stroke-miterlimit:10;}
</style>
<g>
	<polygon class="st0" points="20.5,15.4 24.2,14 24.9,18 28,20.5 24.9,23 24.2,27 20.5,25.6 16.8,27 16.1,23 13,20.5 16.1,18 
		16.8,14 	"/>
	<g>
		<g>
			<line class="st0" x1="20.5" y1="14.9" x2="20.5" y2="5.5"/>
			<polyline class="st0" points="24.9,8.5 20.5,10.4 16.1,8.5 			"/>
			<polyline class="st0" points="26.2,5.6 20.5,8.1 14.8,5.6 			"/>
		</g>
		<g>
			<line class="st0" x1="20.5" y1="26.1" x2="20.5" y2="35.5"/>
			<polyline class="st0" points="24.9,32.5 20.5,30.6 16.1,32.5 			"/>
			<polyline class="st0" points="26.2,35.4 20.5,32.9 14.8,35.4 			"/>
		</g>
	</g>
	<g>
		<g>
			<line class="st0" x1="25.3" y1="17.6" x2="33.3" y2="12.8"/>
			<polyline class="st0" points="33.1,18.1 29.1,15.3 28.5,10.5 			"/>
			<polyline class="st0" points="36.2,17.7 31.1,14.1 30.3,7.9 			"/>
		</g>
		<g>
			<line class="st0" x1="15.7" y1="23.4" x2="7.7" y2="28.2"/>
			<polyline class="st0" points="12.5,30.5 11.9,25.7 7.9,22.9 			"/>
			<polyline class="st0" points="10.7,33.1 9.9,26.9 4.8,23.3 			"/>
		</g>
	</g>
	<g>
		<g>
			<line class="st0" x1="25.5" y1="23.1" x2="33.7" y2="27.5"/>
			<polyline class="st0" points="29.1,30 29.4,25.2 33.2,22.2 			"/>
			<polyline class="st0" points="31,32.5 31.5,26.3 36.4,22.4 			"/>
		</g>
		<g>
			<line class="st0" x1="15.5" y1="17.9" x2="7.3" y2="13.5"/>
			<polyline class="st0" points="7.8,18.8 11.6,15.8 11.9,11 			"/>
			<polyline class="st0" points="4.6,18.6 9.5,14.7 10,8.5 			"/>
		</g>
	</g>
</g>
</svg>
