<svg width="32" height="33" viewBox="0 0 32 33" fill="none" xmlns="http://www.w3.org/2000/svg">
<path d="M11.4711 10.0635C14.1351 6.72755 8.73511 6.82355 12.0311 3.38354" stroke="#222222" stroke-linecap="round" stroke-linejoin="round"/>
<path d="M15.0883 10.0635C17.7523 6.72755 12.3523 6.82355 15.6483 3.38354" stroke="#222222" stroke-linecap="round" stroke-linejoin="round"/>
<path d="M18.7035 10.0635C21.3675 6.72755 15.9675 6.82355 19.2635 3.38354" stroke="#222222" stroke-linecap="round" stroke-linejoin="round"/>
<path d="M8.51953 12.2876H21.8795V26.5836C21.8795 27.9116 20.8075 28.9836 19.4795 28.9836H10.9195C9.59153 28.9836 8.51953 27.9116 8.51953 26.5836V12.2876Z" stroke="#222222" stroke-linecap="round" stroke-linejoin="round"/>
<path d="M21.9844 17.2958C21.9844 16.4398 22.9204 15.0718 24.7684 15.0718C26.6164 15.0718 27.5524 16.1598 27.5524 17.8558C27.5524 20.9438 21.9844 22.3758 21.9844 23.9758" stroke="#222222" stroke-linecap="round" stroke-linejoin="round"/>
</svg>
