<svg width="200" height="152" viewBox="0 0 200 152" fill="none" xmlns="http://www.w3.org/2000/svg">
<path opacity="0.1" d="M17.9775 139.706C6.74157 127.412 0 114 0 91.6471C0 52.5294 28.0899 17.8824 67.4157 0L77.5281 14.5294C40.4494 34.6471 32.5843 60.3529 30.3371 77.1177C35.9551 73.7647 43.8202 72.6471 51.6854 73.7647C71.9101 76 87.6404 91.6471 87.6404 112.882C87.6404 122.941 83.1461 133 76.4045 140.824C68.5393 148.647 59.5506 152 48.3146 152C35.9551 152 24.7191 146.412 17.9775 139.706ZM130.337 139.706C119.101 127.412 112.36 114 112.36 91.6471C112.36 52.5294 140.449 17.8824 179.775 0L189.888 14.5294C152.809 34.6471 144.944 60.3529 142.697 77.1177C148.315 73.7647 156.18 72.6471 164.045 73.7647C184.27 76 200 91.6471 200 112.882C200 122.941 195.506 133 188.764 140.824C182.022 148.647 171.91 152 160.674 152C148.315 152 137.079 146.412 130.337 139.706Z" fill="#3F2021"/>
</svg>
