<?xml version="1.0" encoding="utf-8"?>
<!-- Generator: Adobe Illustrator 27.4.1, SVG Export Plug-In . SVG Version: 6.00 Build 0)  -->
<svg version="1.1" id="Layer_1" xmlns="http://www.w3.org/2000/svg" xmlns:xlink="http://www.w3.org/1999/xlink" x="0px" y="0px"
	 viewBox="0 0 32 32" style="enable-background:new 0 0 32 32;" xml:space="preserve">
<style type="text/css">
	.st0{fill:none;stroke:#000000;stroke-width:0.75;stroke-miterlimit:10;}
	.st1{fill:none;stroke:#000000;stroke-width:0.75;stroke-linecap:round;stroke-linejoin:round;stroke-miterlimit:10;}
</style>
<circle class="st0" cx="19" cy="18.5" r="1.1"/>
<circle class="st0" cx="19" cy="18.5" r="7.4"/>
<path class="st0" d="M29.1,18.5c0,3.5-1.8,6.5-4.4,8.3c-1.6,1.1-3.5,1.7-5.6,1.7c-5.5,0-10-4.5-10-10s4.5-10,10-10
	S29.1,13,29.1,18.5z"/>
<line class="st1" x1="10.9" y1="12.5" x2="6.5" y2="12.5"/>
<line class="st1" x1="9.4" y1="15.7" x2="2.7" y2="15.7"/>
<line class="st1" x1="9" y1="18.6" x2="5.9" y2="18.6"/>
<line class="st1" x1="9.4" y1="21.9" x2="5.3" y2="21.9"/>
<line class="st1" x1="3.5" y1="21.9" x2="1.9" y2="21.9"/>
<rect x="15.6" y="3.5" class="st1" width="6.8" height="2.9"/>
<g>
	<line class="st1" x1="17.3" y1="6.5" x2="17.3" y2="8.6"/>
	<line class="st1" x1="20.8" y1="6.5" x2="20.8" y2="8.6"/>
</g>
<line class="st1" x1="18.1" y1="17.7" x2="16.3" y2="15.9"/>
<line class="st1" x1="19.9" y1="17.7" x2="22.8" y2="14.6"/>
</svg>
