<?xml version="1.0" encoding="utf-8"?>
<!-- Generator: Adobe Illustrator 27.3.1, SVG Export Plug-In . SVG Version: 6.00 Build 0)  -->
<svg version="1.1" id="Layer_1" xmlns="http://www.w3.org/2000/svg" xmlns:xlink="http://www.w3.org/1999/xlink" x="0px" y="0px"
	 viewBox="0 0 41 41" style="enable-background:new 0 0 41 41;" xml:space="preserve">
<style type="text/css">
	.st0{display:none;fill:none;stroke:#000000;stroke-linecap:round;stroke-linejoin:round;stroke-miterlimit:10;}
	.st1{fill:none;stroke:#000000;stroke-linecap:round;stroke-linejoin:round;stroke-miterlimit:10;}
</style>
<path class="st0" d="M19.1,12.4H9.6c-0.3,0-0.5-0.2-0.5-0.5V8.1c0-0.3,0.2-0.5,0.5-0.5h9.6c0.3,0,0.5,0.2,0.5,0.5v3.8
	C19.6,12.2,19.4,12.4,19.1,12.4z"/>
<path class="st0" d="M20,12.6H8.9v0.7h0.4V32c0,1.1,0.9,1.9,1.9,1.9h6.6c1.1,0,1.9-0.9,1.9-1.9V13.3H20V12.6z"/>
<line class="st0" x1="9.5" y1="14.1" x2="19.3" y2="14.1"/>
<path class="st0" d="M9.4,29.8l2.1,0.5c2,0.4,4,0.4,6,0l2-0.5"/>
<circle class="st1" cx="20.3" cy="20.7" r="12.9"/>
<g>
	<path class="st1" d="M12.5,22.5c1.9,2.7,4.6,4.4,7.7,4.4s5.8-1.7,7.7-4.4"/>
</g>
<g>
	<path class="st1" d="M14.5,19c0-1,0.8-1.8,1.8-1.8c1,0,1.8,0.8,1.8,1.8"/>
	<path class="st1" d="M22.4,19c0-1,0.8-1.8,1.8-1.8c1,0,1.8,0.8,1.8,1.8"/>
</g>
<path class="st1" d="M18.4,25.3"/>
<path class="st1" d="M20.1,26.9c0.8,0,1.5-0.7,1.5-1.5v-1l0-1.1c0-0.9,0.8-1.7,1.7-1.7h0c0.9,0,1.7,0.8,1.7,1.7v2.1"/>
<line class="st1" x1="23.3" y1="26.1" x2="23.3" y2="23.7"/>
</svg>
