<?xml version="1.0" encoding="utf-8"?>
<!-- Generator: Adobe Illustrator 27.3.1, SVG Export Plug-In . SVG Version: 6.00 Build 0)  -->
<svg version="1.1" id="Layer_1" xmlns="http://www.w3.org/2000/svg" xmlns:xlink="http://www.w3.org/1999/xlink" x="0px" y="0px"
	 viewBox="0 0 41 41" style="enable-background:new 0 0 41 41;" xml:space="preserve">
<style type="text/css">
	.st0{fill:none;stroke:#000000;stroke-linecap:round;stroke-linejoin:round;stroke-miterlimit:10;}
</style>
<g>
	<g>
		<path class="st0" d="M15,33.8h-4c-0.4,0-0.6-0.2-0.9-0.5c-0.3-0.4-0.6-1-0.8-1.9c-0.3-1.7-0.7-6-0.1-9.8c0.3-1.4,1.8-5.8,1.7-6.3
			c-0.1-0.6-1.2-1.9-1.1-3.2"/>
		<path class="st0" d="M14.8,33.8h4c0.4,0,0.6-0.2,0.9-0.5c0.3-0.4,0.6-1,0.8-1.9c0.3-1.7,0.7-6,0.1-9.8c-0.3-1.4-1.8-5.8-1.7-6.3
			c0.1-0.6,1.2-1.9,1.1-3.2"/>
	</g>
	<path class="st0" d="M19.5,8.6c-0.7-0.8-3.4-0.9-4.6-0.9l0,0l0,0l0,0l0,0c-1.2,0-3.8,0.1-4.6,0.9c-0.7,0.8-0.6,3-0.6,3h4.8h0.8h4.9
		C20.1,11.6,20.2,9.3,19.5,8.6z"/>
</g>
<g>
	<polyline class="st0" points="20.2,13 27.8,13 27.8,32.6 20.5,32.6 	"/>
	<path class="st0" d="M21.6,10V8.9c0-0.6,0.5-1.2,1.2-1.2h6.4c0.6,0,1.2,0.5,1.2,1.2V10"/>
	<polyline class="st0" points="30.5,10.5 21.4,10.5 20.2,11.7 	"/>
	<polyline class="st0" points="27.8,32.6 32.4,32.6 32.4,13 30.2,10.3 27.8,13 	"/>
</g>
</svg>
